<svg xmlns="http://www.w3.org/2000/svg" xmlns:xlink="http://www.w3.org/1999/xlink" width="82.034" height="67.488" viewBox="0 0 82.034 67.488">
  <defs>
    <linearGradient id="linear-gradient" y1="0.5" x2="1" y2="0.5" gradientUnits="objectBoundingBox">
      <stop offset="0.151" stop-color="#2d44d2"/>
      <stop offset="0.171" stop-color="#2b47cc"/>
      <stop offset="0.46" stop-color="#147380"/>
      <stop offset="0.666" stop-color="#058e50"/>
      <stop offset="0.768" stop-color="#00993e"/>
    </linearGradient>
  </defs>
  <g id="Grupo_4517" data-name="Grupo 4517" transform="translate(-470 -2688.785)">
    <path id="Trazado_5702" data-name="Trazado 5702" d="M511.057,2702.786s-43.507,3-40.948,20,1.991,23.591,35.091,30.127c29.744,5.873,47.659,5.873,46.8-15.127s-7.677-36-40.948-35" fill="#ececec"/>
    <path id="Trazado_5716" data-name="Trazado 5716" d="M500.672,2710.667a71.593,71.593,0,0,1,8.32-2.183,22.062,22.062,0,0,1,24.672,18.3,22.262,22.262,0,1,1-37.344-12.249,4.454,4.454,0,0,0,1.532-3.692,86.91,86.91,0,0,1,.1-9.218,13.763,13.763,0,0,1,14.226-12.815,13.993,13.993,0,0,1,13.45,14.409c-.021.985,0,2.124-1.332,2.181-1.441.063-1.548-1.1-1.522-2.165a10.656,10.656,0,0,0-5.215-9.929,11.039,11.039,0,0,0-16.878,9.2c-.049,2.768-.008,5.539-.008,8.163m10.934,40.111a20.265,20.265,0,1,0-20.129-20.276,20.163,20.163,0,0,0,20.129,20.276" fill="url(#linear-gradient)"/>
    <path id="Trazado_5717" data-name="Trazado 5717" d="M509.648,2726.353a2.185,2.185,0,0,1,2.862-2.244c.86.252,1.688.61,2.547.866a1.589,1.589,0,0,0,2.032-.971,1.607,1.607,0,0,0-.959-2.043,14.1,14.1,0,0,0-1.81-.641,1.081,1.081,0,0,1-.9-1.234c0-1.255-.637-1.98-1.609-1.985s-1.62.734-1.612,1.968a1.18,1.18,0,0,1-.747,1.258,5.112,5.112,0,0,0-3.036,4.857,5.24,5.24,0,0,0,3.158,4.892c.974.483,1.974.916,2.953,1.4a2.184,2.184,0,0,1,1.258,2.92,2.214,2.214,0,0,1-2.911,1.117c-.821-.268-1.625-.6-2.458-.822a1.583,1.583,0,0,0-1.084,2.961,6.9,6.9,0,0,0,1.437.538c.974.232,1.56.637,1.459,1.81a1.466,1.466,0,0,0,1.445,1.507,1.643,1.643,0,0,0,1.719-1.361,4.992,4.992,0,0,1,.078-.854,1.624,1.624,0,0,1,.578-.837,5.257,5.257,0,0,0,3.12-4.909,5.183,5.183,0,0,0-3.106-4.91c-1-.505-2.027-.956-3.04-1.435a2.154,2.154,0,0,1-1.373-1.843" fill="url(#linear-gradient)"/>
    <path id="Trazado_5718" data-name="Trazado 5718" d="M509.648,2726.353a2.154,2.154,0,0,0,1.373,1.843c1.013.479,2.04.93,3.04,1.435a5.183,5.183,0,0,1,3.106,4.91,5.257,5.257,0,0,1-3.12,4.909,1.624,1.624,0,0,0-.578.837,4.992,4.992,0,0,0-.078.854,1.643,1.643,0,0,1-1.719,1.361,1.466,1.466,0,0,1-1.445-1.507c.1-1.173-.485-1.578-1.459-1.81a6.9,6.9,0,0,1-1.437-.538,1.583,1.583,0,0,1,1.084-2.961c.833.222,1.637.554,2.458.822a2.214,2.214,0,0,0,2.911-1.117,2.184,2.184,0,0,0-1.258-2.92c-.979-.479-1.979-.912-2.953-1.4a5.24,5.24,0,0,1-3.158-4.892,5.112,5.112,0,0,1,3.036-4.857,1.18,1.18,0,0,0,.747-1.258c-.008-1.234.635-1.973,1.612-1.968s1.612.73,1.609,1.985a1.081,1.081,0,0,0,.9,1.234,14.1,14.1,0,0,1,1.81.641,1.607,1.607,0,0,1,.959,2.043,1.589,1.589,0,0,1-2.032.971c-.859-.256-1.687-.614-2.547-.866a2.185,2.185,0,0,0-2.862,2.244" fill="url(#linear-gradient)"/>
  </g>
</svg>
