<svg xmlns="http://www.w3.org/2000/svg" xmlns:xlink="http://www.w3.org/1999/xlink" width="88.157" height="65.457" viewBox="0 0 88.157 65.457">
  <defs>
    <linearGradient id="linear-gradient" y1="0.5" x2="1" y2="0.5" gradientUnits="objectBoundingBox">
      <stop offset="0.151" stop-color="#2d44d2"/>
      <stop offset="0.171" stop-color="#2b47cc"/>
      <stop offset="0.46" stop-color="#147380"/>
      <stop offset="0.666" stop-color="#058e50"/>
      <stop offset="0.768" stop-color="#00993e"/>
    </linearGradient>
  </defs>
  <g id="Grupo_4518" data-name="Grupo 4518" transform="translate(-715.968 -2688.746)">
    <path id="Trazado_5703" data-name="Trazado 5703" d="M754.941,2754.038S807,2756.786,804,2739.786s10.866-43.127-28-37-61,1-60,22-.059,30.252,38.941,29.252" fill="#ececec"/>
    <path id="Trazado_5719" data-name="Trazado 5719" d="M754.736,2727.336v-.329q.009-9.89.019-19.778c0-2.243-.022-4.486-.017-6.728a5.109,5.109,0,0,1,6.512-4.981,14.679,14.679,0,0,1,1.648.658c0-.777-.027-1.558.009-2.336a6.36,6.36,0,0,1,.226-1.472,5,5,0,0,1,4.7-3.622,5.077,5.077,0,0,1,5.032,3.329c.166.463.253.955.384,1.458a5.265,5.265,0,0,1,3.089-.894,5.065,5.065,0,0,1,4.951,4.495c.084.813.047,1.639.06,2.459.007.461,0,.923,0,1.438.157-.089.261-.146.361-.207a5.166,5.166,0,0,1,7.793,4.662q-.02,9.171-.015,18.343,0,6.875.01,13.75a15.322,15.322,0,0,1-.467,3.891,14.676,14.676,0,0,1-3.813,6.768,14.3,14.3,0,0,1-9.964,4.485c-3.524.108-7.056.036-10.584.044a20.08,20.08,0,0,1-4.127-.381,17.075,17.075,0,0,1-11.965-8.851,46.746,46.746,0,0,1-2.032-4.515c-1.461-3.475-2.926-6.948-4.324-10.448-.9-2.246-2.069-4.351-3.158-6.5a8.578,8.578,0,0,1-1.048-3.209,4.477,4.477,0,0,1,2.941-4.6,5.449,5.449,0,0,1,4.279.343,12.063,12.063,0,0,1,5.628,5.878c.862,1.73,1.737,3.454,2.642,5.161.323.609.753,1.161,1.135,1.738l.1-.046m32.607-21.991a2.968,2.968,0,0,0-2.067-2.938,3.017,3.017,0,0,0-3.37,1.089,2.744,2.744,0,0,0-.552,1.644q0,2.9-.005,5.809,0,6.064,0,12.131a1.087,1.087,0,1,1-2.167.023q-.008-6.747,0-13.493c0-3.994.015-7.987-.007-11.98a2.992,2.992,0,0,0-5.98.114q-.006,11.675,0,23.347a1.081,1.081,0,0,1-1.094,1.2,1.043,1.043,0,0,1-1.036-.909,2.62,2.62,0,0,1-.019-.366q0-10.2,0-20.4c0-2.216.005-4.433,0-6.65a2.947,2.947,0,0,0-2.138-2.956,3,3,0,0,0-3.865,2.784c-.011.649,0,1.3,0,1.945q0,12.189,0,24.377a1.256,1.256,0,0,1-.39,1.021.99.99,0,0,1-1.128.171.94.94,0,0,1-.613-.884c-.011-.833-.007-1.666-.007-2.5q0-8.658,0-17.317a3,3,0,0,0-4.381-2.8,2.87,2.87,0,0,0-1.635,2.6c-.006.11,0,.22,0,.331q0,14.891,0,29.782a1.053,1.053,0,0,1-.767,1.185.97.97,0,0,1-1.1-.312,37.278,37.278,0,0,1-4.753-7.139c-.551-1.134-1.045-2.3-1.638-3.407a9.815,9.815,0,0,0-3.82-4.07,4.26,4.26,0,0,0-2.486-.637,2.343,2.343,0,0,0-2.071,3.082,19.392,19.392,0,0,0,1.209,2.821c.7,1.467,1.523,2.882,2.16,4.375,1.769,4.14,3.474,8.306,5.2,12.466a25.888,25.888,0,0,0,2.486,5.023,15.016,15.016,0,0,0,9.428,6.333,16.958,16.958,0,0,0,3.644.38c3.3-.005,6.593.038,9.889-.011,5.7-.085,9.734-2.779,12.1-7.949a11.321,11.321,0,0,0,.974-4.744q.011-8.032,0-16.066h.005q0-8.253,0-16.506" fill="url(#linear-gradient)"/>
    <path id="Trazado_5720" data-name="Trazado 5720" d="M768.588,2738.467c1.584,1.6,3.14,3.163,4.689,4.725l2.977-3.021c-1.529-1.517-3.1-3.07-4.669-4.63l4.721-4.7-3.011-2.978c-1.507,1.513-3.063,3.078-4.619,4.64l-4.708-4.718-2.987,2.992c1.521,1.508,3.086,3.062,4.65,4.614l-4.727,4.7c1.046,1.043,2.033,2.025,3.052,3.042l4.632-4.671" fill="url(#linear-gradient)"/>
  </g>
</svg>
