<svg xmlns="http://www.w3.org/2000/svg" width="63.984" height="40.411" viewBox="0 0 63.984 40.411">
  <g id="Grupo_4493" data-name="Grupo 4493" transform="translate(-531.185 -803.978)">
    <g id="Grupo_4483" data-name="Grupo 4483">
      <g id="Grupo_4482" data-name="Grupo 4482">
        <g id="Grupo_4481" data-name="Grupo 4481">
          <path id="Trazado_5752" data-name="Trazado 5752" d="M545.766,825.555c-3.892-2.67-5.918-6.138-5.682-10.752a11.047,11.047,0,0,1,3.506-7.614,11.515,11.515,0,0,1,16.163.2,11.224,11.224,0,0,1,3.227,9.615c-.442,3.654-2.426,6.4-5.643,8.541,2.425.658,4.619,1.257,6.816,1.847a10.044,10.044,0,0,1,7.784,10.084c0,1.664.007,3.328,0,4.991-.006,1.263-.5,1.9-1.477,1.917-1,.018-1.476-.587-1.5-1.866a59.663,59.663,0,0,0-.163-6.463,6.408,6.408,0,0,0-4.852-5.593c-3.928-1.159-7.9-2.178-11.858-3.224a2.554,2.554,0,0,0-1.24.06q-5.685,1.5-11.357,3.049a7.062,7.062,0,0,0-5.332,7.054c0,1.77.012,3.54-.007,5.309-.011,1.1-.544,1.679-1.475,1.674s-1.495-.612-1.482-1.686a54.424,54.424,0,0,1,.216-7.2,9.33,9.33,0,0,1,6.941-7.9C540.728,826.852,543.153,826.268,545.766,825.555Zm5.773-1.547a8.519,8.519,0,1,0-8.52-8.473A8.507,8.507,0,0,0,551.539,824.008Z" fill="#fff"/>
        </g>
      </g>
    </g>
    <g id="Grupo_4492" data-name="Grupo 4492">
      <g id="Grupo_4484" data-name="Grupo 4484">
        <path id="Trazado_5753" data-name="Trazado 5753" d="M589.675,833.649c.417.441.808.859,1.2,1.274l3.637,3.824a.45.45,0,0,1,0,.737q-1.492,1.469-3,2.924c-.232.225-.461.2-.717-.058-.638-.65-1.269-1.307-1.9-1.959-.943-.969-1.891-1.934-2.829-2.909-.165-.172-.233-.087-.337.055q-1.539,2.112-3.089,4.216a.864.864,0,0,1-.309.275.418.418,0,0,1-.573-.313c-.329-1.138-.651-2.277-.975-3.416q-.664-2.334-1.327-4.668-.645-2.27-1.291-4.539c-.382-1.343-.76-2.687-1.149-4.028a.529.529,0,0,1,.1-.565.51.51,0,0,1,.565-.1q3.4,1.07,6.8,2.133l9.437,2.954a.862.862,0,0,1,.274.094c.131.1.322.228.336.36a.6.6,0,0,1-.224.46c-.617.458-1.257.884-1.889,1.322l-2.547,1.77C589.816,833.531,589.765,833.578,589.675,833.649Zm3.95,5.47c-.064-.075-.106-.13-.153-.18q-2.355-2.483-4.711-4.962c-.321-.337-.3-.581.076-.845,1.255-.873,2.514-1.74,3.766-2.617.1-.068.226-.22.2-.293a.471.471,0,0,0-.293-.246c-1.995-.633-3.995-1.255-5.993-1.881q-3.946-1.236-7.894-2.467c-.121-.038-.316-.051-.385.017s-.031.253-.033.387a.512.512,0,0,0,.035.127c.251.875.505,1.749.753,2.624.4,1.394.787,2.79,1.184,4.184.432,1.521.87,3.041,1.3,4.562.243.85.477,1.7.726,2.55.029.1.124.232.2.239a.4.4,0,0,0,.29-.157c.263-.332.508-.679.759-1.022q1-1.357,1.992-2.717a.43.43,0,0,1,.546-.2,1.135,1.135,0,0,1,.327.263q2.334,2.391,4.66,4.789c.169.175.266.186.441.007.5-.513,1.022-1,1.534-1.5C593.18,839.561,593.4,839.344,593.625,839.119Z" fill="#fff"/>
        <path id="Trazado_5754" data-name="Trazado 5754" d="M591.2,843.026a1.033,1.033,0,0,1-.73-.354c-.388-.4-.774-.795-1.161-1.193l-1.611-1.656q-.877-.9-1.75-1.8c-1,1.365-1.964,2.686-2.936,4a1.267,1.267,0,0,1-.492.422.837.837,0,0,1-.7,0,.946.946,0,0,1-.5-.6q-.41-1.419-.812-2.841l-3.087-10.86q-.419-1.476-.843-2.949a.976.976,0,0,1,.212-1.016.953.953,0,0,1,1.035-.218l16.239,5.086a1.011,1.011,0,0,1,.423.173.88.88,0,0,1,.1,1.551c-.448.333-.908.649-1.369.965l-2.849,1.976,4.483,4.719a.9.9,0,0,1-.007,1.383q-1.5,1.472-3,2.928A.914.914,0,0,1,591.2,843.026Zm-.3-1.239c.078.08.155.16.234.24a.347.347,0,0,0,.1.078l.333-.34a.447.447,0,0,1-.353.106A.654.654,0,0,1,590.9,841.787Zm-9.025-1.355c.109.378.217.757.327,1.136.015-.018.042-.048.073-.088l.664-.9a.828.828,0,0,1-.571.2A.683.683,0,0,1,581.871,840.432Zm3.961-4.71a.875.875,0,0,1,.35.076,1.48,1.48,0,0,1,.468.36q2.287,2.341,4.559,4.683c.329-.331.644-.635.959-.939l.821-.8-4.563-4.806a1.077,1.077,0,0,1-.348-.819,1.055,1.055,0,0,1,.5-.722l1.4-.974q1.045-.724,2.09-1.453c-1.434-.462-2.843-.9-4.252-1.343l-3.088-.966q-3.012-.944-6.026-1.883l.74,2.523,2.738,9.632c.123.436.246.873.372,1.309.118-.157.233-.315.349-.474l2.178-2.974A.94.94,0,0,1,585.832,835.722Zm8.364,3.359-.145.215.144-.141.033-.04A.378.378,0,0,1,594.2,839.081Zm-8.382-2.437-.344.483a.6.6,0,0,1,.4-.2.584.584,0,0,1,.3.063c-.059-.061-.118-.122-.178-.182A1.027,1.027,0,0,0,585.814,836.644Zm3.2-3.069.006.006.159-.128-.082.057A.73.73,0,0,0,589.018,833.575Zm3.865-3.932a.827.827,0,0,1,.367.447.667.667,0,0,1-.193.633c.328-.226.653-.454.972-.691-.017-.014-.035-.027-.049-.037l-.2-.07Zm1.234.465Zm-16.667-5.289h-.006a.254.254,0,0,0,.017.116q.143.491.282.981a.746.746,0,0,1,.175-.6.725.725,0,0,1,.583-.179l-.956-.3A.328.328,0,0,0,577.45,824.819Z" fill="#fff"/>
      </g>
      <g id="Grupo_4485" data-name="Grupo 4485">
        <path id="Trazado_5755" data-name="Trazado 5755" d="M572.816,827.156c.462-.08.923-.162,1.385-.239.313-.052.51.067.564.331a.431.431,0,0,1-.4.522q-1.382.25-2.769.48c-.345.057-.56-.085-.6-.361s.124-.439.459-.5C571.91,827.311,572.363,827.234,572.816,827.156Z" fill="#fff"/>
      </g>
      <g id="Grupo_4486" data-name="Grupo 4486">
        <path id="Trazado_5756" data-name="Trazado 5756" d="M578.126,820.7c.077.444.157.888.229,1.333a.767.767,0,0,1,0,.313.394.394,0,0,1-.435.309.412.412,0,0,1-.4-.384c-.165-.95-.332-1.9-.493-2.851a.431.431,0,0,1,.34-.538.445.445,0,0,1,.524.4c.086.47.164.941.246,1.412Z" fill="#fff"/>
      </g>
      <g id="Grupo_4487" data-name="Grupo 4487">
        <path id="Trazado_5757" data-name="Trazado 5757" d="M576.353,823.159a1.558,1.558,0,0,1-.29.4.382.382,0,0,1-.538-.115q-.456-.534-.905-1.074t-.913-1.1c-.22-.265-.225-.525-.016-.7s.469-.116.687.144q.893,1.066,1.78,2.137C576.218,822.926,576.261,823.014,576.353,823.159Z" fill="#fff"/>
      </g>
      <g id="Grupo_4488" data-name="Grupo 4488">
        <path id="Trazado_5758" data-name="Trazado 5758" d="M580.394,822.846c-.424.081-.69-.24-.572-.575.24-.683.493-1.361.741-2.042.082-.224.163-.448.25-.67a.446.446,0,0,1,.575-.323.439.439,0,0,1,.245.612c-.321.888-.642,1.777-.98,2.659A1.287,1.287,0,0,1,580.394,822.846Z" fill="#fff"/>
      </g>
      <g id="Grupo_4489" data-name="Grupo 4489">
        <path id="Trazado_5759" data-name="Trazado 5759" d="M581.65,823.729a.8.8,0,0,1,.16-.3q1.124-.966,2.271-1.908a.435.435,0,1,1,.543.678c-.742.626-1.486,1.25-2.237,1.864C582.1,824.3,581.735,824.164,581.65,823.729Z" fill="#fff"/>
      </g>
      <g id="Grupo_4490" data-name="Grupo 4490">
        <path id="Trazado_5760" data-name="Trazado 5760" d="M575.759,829.4a1.024,1.024,0,0,1-.194.341c-.743.638-1.5,1.263-2.256,1.884a.428.428,0,1,1-.551-.654c.755-.64,1.518-1.269,2.277-1.9C575.308,828.838,575.678,829.031,575.759,829.4Z" fill="#fff"/>
      </g>
      <g id="Grupo_4491" data-name="Grupo 4491">
        <path id="Trazado_5761" data-name="Trazado 5761" d="M571.718,823.585a2.04,2.04,0,0,1,.251.06c.88.319,1.761.638,2.639.964.328.121.452.35.35.6s-.329.334-.645.218q-1.33-.488-2.659-.983a.407.407,0,0,1-.315-.432A.467.467,0,0,1,571.718,823.585Z" fill="#fff"/>
      </g>
    </g>
  </g>
</svg>
