<svg xmlns="http://www.w3.org/2000/svg" width="45.419" height="58.708" viewBox="0 0 45.419 58.708">
  <g id="Grupo_4480" data-name="Grupo 4480" transform="translate(-698.109 -801.523)">
    <g id="Grupo_4477" data-name="Grupo 4477">
      <g id="Grupo_4467" data-name="Grupo 4467">
        <path id="Trazado_5741" data-name="Trazado 5741" d="M739.143,832.1a3.51,3.51,0,0,1-.217-1.167" fill="#fff"/>
      </g>
      <g id="Grupo_4468" data-name="Grupo 4468">
        <path id="Trazado_5742" data-name="Trazado 5742" d="M738.926,830.936c-.012-11.413-.01-14.325-.01-25.738,0-1.387-.247-1.635-1.627-1.635H701.774c-1.377,0-1.623.249-1.623,1.639v45.313c0,1.439.234,1.678,1.648,1.678h19.7l.638,2c-.19.012-2.938.036-3.136.036q-8.8,0-17.6,0a3.063,3.063,0,0,1-3.287-3.312c0-18.193,0-27.885,0-46.078a3.071,3.071,0,0,1,3.346-3.318h36.152a3.07,3.07,0,0,1,3.349,3.315c0,15.876-.194,30.473-.194,30.687-.7-.135-1.14-1.389-1.835-1.523,0-1.811-.006,2.495.01.673" fill="#fff"/>
      </g>
      <g id="Grupo_4469" data-name="Grupo 4469">
        <path id="Trazado_5743" data-name="Trazado 5743" d="M719.542,810.875H707.755a3.948,3.948,0,0,1-.635-.021.994.994,0,0,1-.842-1.039.98.98,0,0,1,.858-.962,2.521,2.521,0,0,1,.508-.017h23.764c.127,0,.255-.006.382,0a1.017,1.017,0,0,1-.016,2.033c-.169.012-.34,0-.51,0Z" fill="#fff"/>
      </g>
      <g id="Grupo_4470" data-name="Grupo 4470">
        <path id="Trazado_5744" data-name="Trazado 5744" d="M719.538,814.956H707.815c-.191,0-.383.01-.573-.006a1.014,1.014,0,0,1-.041-2.024,4.329,4.329,0,0,1,.51-.011h23.636a3.024,3.024,0,0,1,.572.018,1.014,1.014,0,0,1-.022,2.009,3.312,3.312,0,0,1-.573.013Z" fill="#fff"/>
      </g>
      <g id="Grupo_4471" data-name="Grupo 4471">
        <path id="Trazado_5745" data-name="Trazado 5745" d="M719.535,819.037H707.749a3.048,3.048,0,0,1-.635-.023.973.973,0,0,1-.837-.98,1,1,0,0,1,.863-1.021,3.894,3.894,0,0,1,.572-.016H731.35c.127,0,.255,0,.382,0a1.02,1.02,0,1,1-.028,2.036c-.169.008-.339,0-.509,0Z" fill="#fff"/>
      </g>
      <g id="Grupo_4472" data-name="Grupo 4472">
        <path id="Trazado_5746" data-name="Trazado 5746" d="M719.5,823.117H707.776a4.488,4.488,0,0,1-.636-.016,1,1,0,0,1-.862-1.022.972.972,0,0,1,.838-.978,3.121,3.121,0,0,1,.635-.023q11.785,0,23.572,0a2.983,2.983,0,0,1,.635.024.974.974,0,0,1,.832.984,1,1,0,0,1-.87,1.016,4.641,4.641,0,0,1-.636.015Z" fill="#fff"/>
      </g>
      <g id="Grupo_4473" data-name="Grupo 4473">
        <path id="Trazado_5747" data-name="Trazado 5747" d="M719.532,825.158h11.721c.17,0,.34-.008.509,0a1.016,1.016,0,0,1,1.03,1,1,1,0,0,1-1.056,1.032c-1.634.016-3.269.007-4.9.007H707.655a2.3,2.3,0,0,1-.571-.027,1.013,1.013,0,0,1,.026-1.988,2.912,2.912,0,0,1,.635-.023Z" fill="#fff"/>
      </g>
      <g id="Grupo_4474" data-name="Grupo 4474">
        <path id="Trazado_5748" data-name="Trazado 5748" d="M719.538,829.232H731.2c.191,0,.382.007.573.019a1.033,1.033,0,0,1,1.025,1,1,1,0,0,1-1.009,1.01c-1.635.023-3.27.016-4.9.017H713.061q-2.772,0-5.543,0c-.779,0-1.26-.408-1.244-1.045.016-.615.471-.982,1.23-.982q6.018,0,12.034,0Z" fill="#fff"/>
      </g>
      <g id="Grupo_4475" data-name="Grupo 4475">
        <path id="Trazado_5749" data-name="Trazado 5749" d="M719.511,833.482h11.657c.191,0,.383.008.574.019a1.032,1.032,0,0,1,1.024,1,1,1,0,0,1-1.009,1.01c-1.634.023-3.269.016-4.9.017q-6.909,0-13.819,0-2.772,0-5.543,0c-.779,0-1.26-.408-1.243-1.044.016-.616.47-.983,1.23-.983h12.033Z" fill="#fff"/>
      </g>
      <g id="Grupo_4476" data-name="Grupo 4476">
        <path id="Trazado_5750" data-name="Trazado 5750" d="M719.511,837.733h1.456c.192,0,.383.008.574.019a1.032,1.032,0,0,1,1.024,1,1,1,0,0,1-1.009,1.011c-1.634.022-3.269.016-4.9.016-4.606,0,.988,0-3.618,0q-2.772,0-5.543,0c-.779,0-1.26-.409-1.243-1.045.016-.615.47-.982,1.23-.983h12.033Z" fill="#fff"/>
      </g>
    </g>
    <g id="Grupo_4479" data-name="Grupo 4479">
      <g id="Grupo_4478" data-name="Grupo 4478">
        <path id="Trazado_5751" data-name="Trazado 5751" d="M734.181,837.644c.469.248.945.454,1.373.735a8.762,8.762,0,0,1,4.225,8.358,14.454,14.454,0,0,1-.52,2.563c-.36,1.441-.758,2.873-1.144,4.308a8.748,8.748,0,0,1-3.284,4.806,8.948,8.948,0,0,1-13.979-9.549c.477-1.79.892-3.6,1.449-5.365a8.773,8.773,0,0,1,7.281-6.343,7.918,7.918,0,0,1,2.822.031.265.265,0,0,0,.3-.126c.425-.534.837-1.081,1.294-1.586a4.715,4.715,0,0,1,4.6-1.553c.85.155,3.391,1.213,4.231,1.418a.783.783,0,0,1,.692.851.765.765,0,0,1-1.026.64c-.424-.1-2.546-1.07-2.971-1.171a5.98,5.98,0,0,0-2.463-.229,3.416,3.416,0,0,0-1.117.41A6.535,6.535,0,0,0,734.181,837.644ZM723.4,845.331c-.034.1-.06.178-.08.252-.331,1.241-.67,2.48-.99,3.724a7.4,7.4,0,0,0,8.029,9.3,7.373,7.373,0,0,0,6.232-5.314c.369-1.321.724-2.646,1.083-3.97a.84.84,0,0,0,.013-.157Zm8.3.627,6.408,1.731a7.232,7.232,0,0,0-.752-5.267,7.371,7.371,0,0,0-3.816-3.34Zm-7.883-2.112,6.383,1.708,1.852-6.843C728.99,837.813,724.4,840.683,723.813,843.846Z" fill="#fff"/>
      </g>
    </g>
  </g>
</svg>
