<svg xmlns="http://www.w3.org/2000/svg" width="58.067" height="58.058" viewBox="0 0 58.067 58.058">
  <g id="Grupo_4466" data-name="Grupo 4466" transform="translate(-1008.197 -798.999)">
    <g id="Grupo_4465" data-name="Grupo 4465">
      <g id="Grupo_4464" data-name="Grupo 4464">
        <path id="Trazado_5740" data-name="Trazado 5740" d="M1037.514,799a29.029,29.029,0,1,1-29.27,30.591A29.034,29.034,0,0,1,1037.514,799Zm17.177,49.119c-.268-.31-.515-.569-.729-.854a5.723,5.723,0,0,1-.586-.894c-1.77-3.582-1.037-6.943.99-10.139a6.068,6.068,0,0,0,1.055-3.2c.039-2.226-.873-3.31-3.038-3.666a6.311,6.311,0,0,1-5.171-3.681,6.734,6.734,0,0,1,2.657-8.025,11.807,11.807,0,0,1,6.262-1.946c1.556-.088,3.121-.017,4.857-.017-.751-1.162-1.481-2.209-2.123-3.307a3.683,3.683,0,0,0-3.318-2.047c-.639-.009-1.276-.145-1.916-.2a7.1,7.1,0,0,0-6.248,2.063,15.52,15.52,0,0,1-3.334,2.417,3.193,3.193,0,0,1-3.094.082,4.632,4.632,0,0,1-2.678-4.646,11.353,11.353,0,0,1,2.051-5.333c.64-.962,1.3-1.907,2.005-2.934a26.018,26.018,0,0,0-11.22.278c.506.9.938,1.713,1.419,2.5a17.122,17.122,0,0,1,2.148,5.337,8.3,8.3,0,0,1-.728,6.228,8.54,8.54,0,0,1-4.481,3.477,13.151,13.151,0,0,0-2.345,1.174,1.552,1.552,0,0,0-.6,1.122,2.185,2.185,0,0,0,2.881,1.857c.74-.32,1.434-.746,2.145-1.131a5.456,5.456,0,0,1,7.455,1.438,3.932,3.932,0,0,1,.774,4.07,20.455,20.455,0,0,1-1.094,2.318c-.444.868-.958,1.7-1.375,2.581a4.093,4.093,0,0,0-.081,3.258,7.689,7.689,0,0,1,.529,2.495,14.93,14.93,0,0,1-5.6,11.915,5.985,5.985,0,0,1-2.012,1.04,3.5,3.5,0,0,1-4.855-3.234,7.313,7.313,0,0,1-.012-1.282c.122-1.4.271-2.8.412-4.193a4.272,4.272,0,0,0-2.054-4.322c-.58-.374-1.155-.758-1.712-1.165-1.8-1.323-2.8-2.977-2.359-5.331a9.532,9.532,0,0,0,.007-2.492,3.175,3.175,0,0,0-2.074-2.838,10.089,10.089,0,0,0-1.493-.475,7.641,7.641,0,0,1-4.563-2.978c-.092-.128-.2-.245-.327-.4-2.01,8.564,1.135,20.968,12.268,27.783A26.412,26.412,0,0,0,1054.691,848.118Zm-27.128-.607.034,0c0,.215-.007.429,0,.643.051,1.234.726,1.772,1.885,1.34a6.1,6.1,0,0,0,1.908-1.205,12.959,12.959,0,0,0,3.478-5.654,8.748,8.748,0,0,0,.047-6.075,5.209,5.209,0,0,1-.171-2.928,22.349,22.349,0,0,1,1.592-3.787,21.715,21.715,0,0,0,1.149-2.286,2.166,2.166,0,0,0-.1-1.678c-1.294-1.808-2.727-2.3-4.524-1.3a23.458,23.458,0,0,1-2.724,1.4,4.546,4.546,0,0,1-5.983-4.22,3.616,3.616,0,0,1,1.981-3.183c1.005-.575,2.113-.968,3.169-1.455a5.161,5.161,0,0,0,3.225-6.014,19.052,19.052,0,0,0-3.673-8.024.862.862,0,0,0-.773-.106,26.531,26.531,0,0,0-15.692,15.354,2.07,2.07,0,0,0-.106,1.1,5.465,5.465,0,0,0,4.418,4.736c3.217.764,4.955,2.556,5.181,5.38a17.718,17.718,0,0,1-.093,3.343,2.408,2.408,0,0,0,.81,2.169,7.948,7.948,0,0,0,1.467,1.122,7.071,7.071,0,0,1,3.885,7.845C1027.779,845.187,1027.692,846.352,1027.563,847.511Zm28.972-.944c.187-.245.319-.442.475-.617a26.417,26.417,0,0,0,6.87-16.177,26.715,26.715,0,0,0-1.573-10.951.774.774,0,0,0-.758-.607c-1.259-.069-2.516-.219-3.775-.23a13.014,13.014,0,0,0-5.577,1.024,5.252,5.252,0,0,0-2.886,3.1,3.356,3.356,0,0,0,1.5,4.25,7.788,7.788,0,0,0,2.359.736,5.045,5.045,0,0,1,3.986,3.109,7.208,7.208,0,0,1-.79,7.188,9.26,9.26,0,0,0-1.552,3.952A5.516,5.516,0,0,0,1056.535,846.567Zm-2.076-38.82c-.021-.045-.029-.1-.06-.125a25.465,25.465,0,0,0-9.128-5.016.827.827,0,0,0-.708.237,21.223,21.223,0,0,0-3.437,5.394,8.467,8.467,0,0,0-.493,2.21,2.112,2.112,0,0,0,1.176,2.057,1.617,1.617,0,0,0,1.908-.361c1.1-.836,2.177-1.7,3.213-2.609a6.036,6.036,0,0,1,3.658-1.595C1051.867,807.854,1053.148,807.811,1054.459,807.747Z" fill="#fff"/>
      </g>
    </g>
  </g>
</svg>
