<svg xmlns="http://www.w3.org/2000/svg" xmlns:xlink="http://www.w3.org/1999/xlink" width="89.192" height="69.29" viewBox="0 0 89.192 69.29">
  <defs>
    <linearGradient id="linear-gradient" y1="0.5" x2="1" y2="0.5" gradientUnits="objectBoundingBox">
      <stop offset="0.151" stop-color="#2d44d2"/>
      <stop offset="0.171" stop-color="#2b47cc"/>
      <stop offset="0.46" stop-color="#147380"/>
      <stop offset="0.666" stop-color="#058e50"/>
      <stop offset="0.768" stop-color="#00993e"/>
    </linearGradient>
    <linearGradient id="linear-gradient-5" x1="0" y1="0.5" x2="1" y2="0.5" xlink:href="#linear-gradient"/>
    <linearGradient id="linear-gradient-6" x1="0" y1="0.5" x2="1" y2="0.5" xlink:href="#linear-gradient"/>
    <linearGradient id="linear-gradient-8" x1="0" y1="0.5" x2="1" y2="0.5" xlink:href="#linear-gradient"/>
    <linearGradient id="linear-gradient-11" x1="0" y1="0.5" x2="1" y2="0.5" xlink:href="#linear-gradient"/>
  </defs>
  <g id="Grupo_4516" data-name="Grupo 4516" transform="translate(-215.875 -2689.786)">
    <path id="Trazado_5701" data-name="Trazado 5701" d="M265,2699.786s-52,11-49,28,2.268,36.253,41.134,30.127S306,2759.786,305,2738.786s-1-40-40-39" fill="#ececec"/>
    <path id="Trazado_5705" data-name="Trazado 5705" d="M277.684,2749.487a3.086,3.086,0,0,1-3.235,3.232H262.034q-9.376,0-18.754,0a3.09,3.09,0,0,1-3.231-3.278q0-10.344,0-20.686,0-8.815,0-17.63c0-1.185.013-2.37.012-3.556,0-1.539-.025-3.079,0-4.617a2.97,2.97,0,0,1,1.023-2.228,3.113,3.113,0,0,1,2.2-.788q6.612,0,13.225,0,8.957,0,17.911,0a3.173,3.173,0,0,1,1.892.508,3.1,3.1,0,0,1,1.376,2.682q-.009,11.592,0,23.182Zm-1.54-46.275a1.648,1.648,0,0,0-1.745-1.733c-5.7.024-11.4.009-17.1.009-4.646,0-9.294.02-13.94-.011a1.668,1.668,0,0,0-1.771,1.779c.036,2.88,0,5.761,0,8.641q0,9.174.01,18.346c0,6.387.013,12.773-.013,19.158a1.706,1.706,0,0,0,1.782,1.781q15.507-.03,31.016-.012a1.56,1.56,0,0,0,1.742-1.73v-23.146c0-7.693-.01-15.388.011-23.082" fill="url(#linear-gradient)"/>
    <path id="Trazado_5706" data-name="Trazado 5706" d="M234.856,2721.285v18.064c0,1.623-.01,3.245,0,4.866a3.445,3.445,0,0,0,3.312,3.428c.565.026.686-.088.686-.647,0-.053,0-.1,0-.156.034-.523-.067-.719-.662-.761a1.865,1.865,0,0,1-1.786-2.043q0-8.547,0-17.1v-28.383a1.92,1.92,0,0,1,2.146-2.133H251.5c5.749,0,11.5.013,17.249-.013a2.02,2.02,0,0,1,2.161,1.925.409.409,0,0,0,.47.425c.208,0,.416,0,.624,0a.412.412,0,0,0,.452-.469,3.4,3.4,0,0,0-2.359-3.223,3.939,3.939,0,0,0-1.159-.189c-3.807-.011-7.613,0-11.42,0q-9.437,0-18.873-.014a3.9,3.9,0,0,0-1.846.361,3.253,3.253,0,0,0-1.929,2.879c-.054,1.454-.017,2.911-.017,4.367q0,7.254,0,14.508,0,2.153,0,4.3" fill="url(#linear-gradient)"/>
    <path id="Trazado_5707" data-name="Trazado 5707" d="M229.87,2716.2q0,11.4,0,22.8a3.423,3.423,0,0,0,1.79,3.139,3.216,3.216,0,0,0,1.795.425.394.394,0,0,0,.413-.414c.008-.177,0-.353,0-.53,0-.468-.114-.587-.582-.609a1.881,1.881,0,0,1-1.831-1.571,2.813,2.813,0,0,1-.032-.528q0-8.518,0-17.036v-23.054c0-1.776.035-3.553-.012-5.328a2.061,2.061,0,0,1,2.177-2.171q13.572.029,27.143.01c1.061,0,2.12,0,3.181,0a1.948,1.948,0,0,1,2.018,1.875c.031.368.14.474.5.48.177,0,.354,0,.531,0,.386,0,.537-.142.514-.528a3.385,3.385,0,0,0-1.893-2.977,3.65,3.65,0,0,0-1.742-.4q-8.721.006-17.442,0c-4.324,0-8.649-.009-12.973,0a3.373,3.373,0,0,0-3.276,2.116,3.6,3.6,0,0,0-.273,1.422q-.024,11.435-.011,22.868" fill="url(#linear-gradient)"/>
    <path id="Trazado_5708" data-name="Trazado 5708" d="M258.858,2729.151H246c-.492,0-.531.039-.532.533,0,.23,0,.458,0,.687a.3.3,0,0,0,.327.334c.1,0,.208,0,.313,0h16.349q4.631,0,9.264,0c.491,0,.524-.034.524-.536v-.531c0-.445-.043-.486-.475-.488H258.858Z" fill="url(#linear-gradient)"/>
    <path id="Trazado_5709" data-name="Trazado 5709" d="M258.86,2721.843H245.975c-.458,0-.5.044-.5.5,0,.229.006.458,0,.687-.008.253.13.358.361.37.144.007.291,0,.436,0h25.424c.54,0,.557-.018.557-.565,0-.228,0-.458,0-.686a.27.27,0,0,0-.312-.3H258.86" fill="url(#linear-gradient-5)"/>
    <path id="Trazado_5710" data-name="Trazado 5710" d="M258.857,2738.014h11.6c.476,0,.954-.006,1.431,0,.25,0,.364-.1.359-.355-.006-.291,0-.582,0-.873a.29.29,0,0,0-.328-.326H245.965c-.4,0-.493.1-.493.493,0,.23,0,.458,0,.687,0,.262.115.377.378.375.842,0,1.684,0,2.526,0Z" fill="url(#linear-gradient-6)"/>
    <path id="Trazado_5711" data-name="Trazado 5711" d="M258.866,2745.323h12.888c.477,0,.494-.017.495-.491,0-.239,0-.479,0-.718s-.115-.34-.344-.338h-.218l-17.225,0-8.486,0c-.438,0-.5.066-.505.5,0,.219.007.438,0,.655-.009.276.108.4.389.4q3.263-.007,6.523,0Z" fill="url(#linear-gradient)"/>
    <path id="Trazado_5712" data-name="Trazado 5712" d="M258.84,2714.531H245.987c-.476,0-.513.04-.513.519,0,.218.006.436,0,.655a.321.321,0,0,0,.352.375c.177.007.354,0,.531,0H271.03c.29,0,.581,0,.872,0,.228,0,.35-.1.348-.338,0-.3,0-.6,0-.9a.276.276,0,0,0-.307-.31h-13.1Z" fill="url(#linear-gradient-8)"/>
    <path id="Trazado_5713" data-name="Trazado 5713" d="M258.878,2708.746q2.9,0,5.8,0,3.54.006,7.08.016c.46,0,.487-.03.49-.5,0-.24,0-.479,0-.718a.284.284,0,0,0-.32-.328c-.094,0-.188,0-.281,0H245.973c-.442,0-.5.058-.5.506,0,.217.008.436,0,.654-.012.283.124.4.4.391.073,0,.146,0,.218,0h12.794Z" fill="url(#linear-gradient-8)"/>
    <path id="Trazado_5714" data-name="Trazado 5714" d="M290.321,2701.353a9.874,9.874,0,1,1-9.9,9.82,9.855,9.855,0,0,1,9.9-9.82m-8.712,9.883a8.686,8.686,0,1,0,8.667-8.7,8.68,8.68,0,0,0-8.667,8.7" fill="url(#linear-gradient)"/>
    <path id="Trazado_5715" data-name="Trazado 5715" d="M290.469,2710.747a.459.459,0,0,0,.7.389c.865-.546,1.68-1.027,2.484-1.524s1.28.266.48.785c-1.225.795-2.466,1.564-3.711,2.327-.613.376-.893.215-.895-.507-.009-2.564-.016-5.128.017-7.692a.326.326,0,0,1,.019-.1.456.456,0,0,1,.851,0,.392.392,0,0,1,.031.148c.031,2.021.023,4.041.021,6.175" fill="url(#linear-gradient-11)"/>
  </g>
</svg>
