<svg xmlns="http://www.w3.org/2000/svg" xmlns:xlink="http://www.w3.org/1999/xlink" width="98.172" height="64.29" viewBox="0 0 98.172 64.29">
  <defs>
    <linearGradient id="linear-gradient" y1="0.5" x2="1" y2="0.5" gradientUnits="objectBoundingBox">
      <stop offset="0.151" stop-color="#2d44d2"/>
      <stop offset="0.171" stop-color="#2b47cc"/>
      <stop offset="0.46" stop-color="#147380"/>
      <stop offset="0.666" stop-color="#058e50"/>
      <stop offset="0.768" stop-color="#00993e"/>
    </linearGradient>
  </defs>
  <g id="Grupo_4519" data-name="Grupo 4519" transform="translate(-962.865 -2689.786)">
    <path id="Trazado_5704" data-name="Trazado 5704" d="M1015.9,2701.786s48,4,45,21-2.268,36.253-41.134,30.127-57.866,4.873-56.866-16.127,14-36,53-35" fill="#ececec"/>
    <path id="Trazado_5721" data-name="Trazado 5721" d="M1030.092,2707.785v.76q0,4.579,0,9.158c0,6.478,0,15.957,0,22.435,0,.776,0,.776.757.778.468,0,.936.02,1.4,0,.408-.021.527.148.517.539-.022.916.01,1.832-.015,2.747-.011.414.109.577.545.56.771-.03,1.545,0,2.317-.012.343-.007.48.116.478.466q-.014,3.476,0,6.95c0,.386-.156.51-.515.486-.233-.017-.467,0-.7,0H989.52c-.855,0-.856,0-.857-.838,0-2.137.015-4.273-.012-6.41-.007-.531.169-.685.678-.657.715.038,1.436,0,2.154.014.372.01.512-.128.505-.5-.017-.915.011-1.832-.011-2.747-.011-.431.118-.626.577-.6.484.031.971-.017,1.454.011.458.028.63-.123.627-.607-.016-4.723-.017-12.445-.013-17.167,0-1.469.057-2.938.054-4.406-.007-3.626-.032-7.252-.054-10.878a1.622,1.622,0,0,0-.06-.289c-.13.056-.229.089-.316.138a7.973,7.973,0,0,1-10.9-3.115c-2.431-4.159-1.785-11.715,5.6-14.03a17.906,17.906,0,0,1,5.414-.78q17.829,0,35.661,0a14.392,14.392,0,0,1,6.938,1.446,10.411,10.411,0,0,1,4.543,12.01,8.138,8.138,0,0,1-7.19,5.5,7.042,7.042,0,0,1-3.563-.671c-.175-.08-.353-.157-.651-.288m-33.653,14.066v1.884c0,4.524.008,12.05-.008,16.574,0,.473.142.622.611.616,1.688-.022,3.376-.008,5.064-.009.785,0,.785,0,.785-.81,0-8.313,0-19.626,0-27.94,0-1.457-.206-1.219,1.251-1.257.417-.012.6.124.562.549-.016.178,0,.359,0,.538v28.1c0,.816,0,.818.835.818q2.559,0,5.117,0c.826,0,.827,0,.827-.819v-28.263a1.424,1.424,0,0,1,.016-.532.831.831,0,0,1,.389-.372,1.25,1.25,0,0,1,.48-.016c.9,0,.9,0,.9.907,0,8.474,0,19.949-.011,28.425,0,.5.131.689.662.681,1.777-.029,3.554-.01,5.332-.011.756,0,.756,0,.756-.78,0-8.349,0-19.7.005-28.048,0-1.346-.219-1.139,1.215-1.18.466-.014.573.173.571.6-.011,1.885.008,3.771.007,5.655,0,6.715-.005,16.43-.022,23.146,0,.473.142.621.615.615,1.724-.023,3.447-.007,5.171-.01.74,0,.742-.006.742-.739v-20.233q0-6.49,0-12.98c0-.888-.267-1.157-1.146-1.157H997.214c-.773,0-.775,0-.775.8Zm36.858-17.425c.054-.393.127-.8.161-1.2.026-.315.151-.446.47-.537a2.32,2.32,0,0,0,.969-.532,3.476,3.476,0,0,0-.333-4.914,4.152,4.152,0,0,0-6.545,2.733,5.97,5.97,0,0,0,3.985,6.66,6.3,6.3,0,0,0,7.835-4.093,7.911,7.911,0,0,0,.214-3.884,7.421,7.421,0,0,0-4.526-6.107,11.984,11.984,0,0,0-4.879-.963q-18.31-.019-36.623,0a14.144,14.144,0,0,0-4.4.66,7.953,7.953,0,0,0-5.011,4.039,8.785,8.785,0,0,0-.647,4.424,6.56,6.56,0,0,0,7.447,6.147,5.94,5.94,0,0,0,4.689-7.431,4.146,4.146,0,0,0-6.926-1.763c-1.5,1.549-.877,4.45,1.1,4.954.471.12.633.313.59.758a3.875,3.875,0,0,0,0,.431c.006.733-.051.779-.762.637a4.685,4.685,0,0,1-3.516-5.449,5.555,5.555,0,0,1,5.4-4.411,6.17,6.17,0,0,1,5.909,4.565c.124.428.282.6.759.6q13.491-.024,26.982,0a.637.637,0,0,0,.736-.564,6.129,6.129,0,0,1,3.679-4.164,5.608,5.608,0,0,1,6.443,1.6,5.5,5.5,0,0,1,.067,6.4,3.372,3.372,0,0,1-3.26,1.41m-20.97,46.406h15.19c2.065,0,4.13-.007,6.2,0,.413,0,.576-.13.565-.558-.025-.951-.006-1.9-.006-2.855,0-.863,0-.866-.844-.866h-19.878q-5.008,0-10.017,0-6.249,0-12.5-.012c-.447,0-.6.155-.594.594.02.951.005,1.9.006,2.854,0,.833,0,.834.816.834h21.063m0-8.1v-.024q-3.445,0-6.891,0-5.168.007-10.338.023c-1.328,0-1.3,0-1.334,1.343-.015.559.174.689.707.688,6.765-.01,13.528.008,20.293.009q7.458,0,14.915-.02c1.277,0,1.277,0,1.271-1.287,0-.729,0-.732-.748-.732h-17.875m-14.681-38.754h29.007a14,14,0,0,1-.411-1.759c-.062-.555-.291-.692-.823-.69-5.006.018-10.012.011-15.019.011H998.984a1.986,1.986,0,0,0-.535.019.512.512,0,0,0-.328.27c-.173.69-.314,1.389-.477,2.149" fill="url(#linear-gradient)"/>
  </g>
</svg>
