<svg xmlns="http://www.w3.org/2000/svg" width="48.798" height="49.555" viewBox="0 0 48.798 49.555">
  <g id="Grupo_4501" data-name="Grupo 4501" transform="translate(-855.964 -800.594)">
    <g id="Grupo_4500" data-name="Grupo 4500">
      <g id="Grupo_4496" data-name="Grupo 4496">
        <g id="Grupo_4495" data-name="Grupo 4495">
          <g id="Grupo_4494" data-name="Grupo 4494">
            <path id="Trazado_5762" data-name="Trazado 5762" d="M898.662,831.836h1.986v2.016c-.12.01-.256.03-.392.031q-12.388.018-24.777.032-8.481,0-16.963-.04c-.413,0-.556.1-.537.527.035.808,0,1.619.012,2.428.009.844.29,1.126,1.113,1.126q21.254,0,42.505,0c.862,0,1.125-.283,1.126-1.207q0-13.287,0-26.574,0-2.787,0-5.573a1.292,1.292,0,0,0-1.289-1.29c-2.1,0-22.806,0-24.9,0H876v-2.024h.491c2.144,0,22.9,0,25.044,0a3.2,3.2,0,0,1,3.223,3.236q0,16.121,0,32.242a3.179,3.179,0,0,1-3.187,3.215q-5.67.01-11.341,0h-.689v4.071c.622,0,1.236,0,1.85,0,.878,0,1.255.491,1.15,1.489a11.687,11.687,0,0,0,0,2.853,1.574,1.574,0,0,1-.648,1.755H868.831a1.533,1.533,0,0,1-.657-1.675,10.543,10.543,0,0,0,.031-2.5c-.159-1.4.119-1.915,1.214-1.917h1.771v-4.071h-.532c-3.808,0-7.616-.01-11.424.007a3.022,3.022,0,0,1-2.526-1.189,8.681,8.681,0,0,1-.744-1.415v-8.352l2-5.364v8.154h16.295m-.988,8.185v4.02h14.181v-4.02Zm7.084,6.068h-3.666c-2.015,0-4.031.007-6.046-.006-.348,0-.492.092-.465.455a6.185,6.185,0,0,1,0,1.045c-.04.43.1.567.549.565,3.824-.017,7.649-.01,11.473-.01,2.619,0,5.237-.007,7.856.008.372,0,.52-.1.484-.48a4.9,4.9,0,0,1,0-1c.049-.452-.1-.592-.568-.589C886.77,846.086,883.565,846.076,880.359,846.076Z" fill="#fff"/>
          </g>
        </g>
      </g>
      <g id="Grupo_4499" data-name="Grupo 4499">
        <g id="Grupo_4498" data-name="Grupo 4498">
          <g id="Grupo_4497" data-name="Grupo 4497">
            <path id="Trazado_5763" data-name="Trazado 5763" d="M867.939,817.686c-3.19-2.114-4.85-4.862-4.656-8.517a8.622,8.622,0,0,1,2.873-6.031,9.67,9.67,0,0,1,13.246.162,8.713,8.713,0,0,1,2.645,7.617,9.234,9.234,0,0,1-4.625,6.765c1.988.521,3.786,1,5.586,1.464a8.01,8.01,0,0,1,6.38,7.988c0,1.318.005,2.635,0,3.953-.005,1-.414,1.505-1.21,1.519-.819.014-1.21-.465-1.227-1.479a45.69,45.69,0,0,0-.133-5.119,5.134,5.134,0,0,0-3.977-4.431c-3.219-.917-6.472-1.725-9.718-2.553a2.158,2.158,0,0,0-1.017.047q-4.659,1.188-9.307,2.415a5.627,5.627,0,0,0-4.37,5.588c0,1.4.01,2.8-.006,4.206-.009.871-.446,1.33-1.209,1.326A1.169,1.169,0,0,1,856,831.27a41.656,41.656,0,0,1,.177-5.7,7.481,7.481,0,0,1,5.688-6.262C863.81,818.714,865.8,818.251,867.939,817.686Zm4.731-1.225a6.753,6.753,0,1,0-6.983-6.712A6.863,6.863,0,0,0,872.67,816.461Z" fill="#fff"/>
          </g>
        </g>
      </g>
    </g>
  </g>
</svg>
