<svg xmlns="http://www.w3.org/2000/svg" width="74.084" height="39.587" viewBox="0 0 74.084 39.587">
  <g id="Grupo_4515" data-name="Grupo 4515" transform="translate(-367.911 -806.913)">
    <g id="Grupo_4507" data-name="Grupo 4507">
      <g id="Grupo_4505" data-name="Grupo 4505">
        <path id="Trazado_5765" data-name="Trazado 5765" d="M433.455,841.623h-56.9a3.022,3.022,0,0,1-3.018-3.018V809.932a3.022,3.022,0,0,1,3.018-3.019h56.9a3.022,3.022,0,0,1,3.018,3.019V838.6A3.022,3.022,0,0,1,433.455,841.623Zm-56.9-32.865a1.175,1.175,0,0,0-1.173,1.174V838.6a1.174,1.174,0,0,0,1.173,1.173h56.9a1.175,1.175,0,0,0,1.174-1.173V809.932a1.176,1.176,0,0,0-1.174-1.174Z" fill="#fff"/>
      </g>
      <g id="Grupo_4506" data-name="Grupo 4506">
        <path id="Trazado_5766" data-name="Trazado 5766" d="M367.911,843.417h74.082a2.691,2.691,0,0,1-2.279,3,7.907,7.907,0,0,1-1.51.078q-33.21.006-66.421,0C369.182,846.5,368.191,845.742,367.911,843.417Zm41.381,1.4.02-.543H400.69l0,.5A67.32,67.32,0,0,0,409.292,844.816Z" fill="#fff"/>
      </g>
    </g>
    <g id="Grupo_4514" data-name="Grupo 4514">
      <g id="Grupo_4513" data-name="Grupo 4513">
        <g id="Grupo_4508" data-name="Grupo 4508">
          <path id="Trazado_5767" data-name="Trazado 5767" d="M404.431,814.258c0-.471-.008-.928,0-1.383.011-.484.273-.785.662-.789s.66.3.672.778c.011.457,0,.914,0,1.4.291.056.551.1.807.155a7.011,7.011,0,0,1,5.54,6.876q.018,3.021,0,6.043a.914.914,0,0,0,.31.736c.484.458.956.931,1.416,1.413a2.228,2.228,0,0,1,.207,2.449,1.605,1.605,0,0,1-1.45.707c-1.364,0-2.728.007-4.092-.007a.47.47,0,0,0-.552.4,2.98,2.98,0,0,1-5.7.008c-.1-.345-.265-.412-.59-.408-1.32.017-2.639,0-3.959.01a1.624,1.624,0,0,1-1.669-.936,2.242,2.242,0,0,1,.354-2.247c.464-.479.96-.928,1.4-1.426a1.152,1.152,0,0,0,.28-.689c.022-1.925.044-3.851.006-5.776a7.047,7.047,0,0,1,6.02-7.237C404.2,814.321,404.294,814.29,404.431,814.258Zm.659,17.039h5.959c.519,0,1.038,0,1.556,0,.236,0,.348-.087.355-.338a.873.873,0,0,0-.278-.751c-.448-.409-.855-.863-1.3-1.279a1.859,1.859,0,0,1-.61-1.46c.017-2.073.023-4.146,0-6.219a5.679,5.679,0,1,0-11.356.156c-.005,2.028-.011,4.057.005,6.085a1.834,1.834,0,0,1-.594,1.423,16.367,16.367,0,0,0-1.4,1.427,1.357,1.357,0,0,0-.135.815c0,.049.324.134.5.134C400.228,831.3,402.659,831.3,405.09,831.3Zm-1.495,1.365a1.544,1.544,0,0,0,1.619,1.14,1.414,1.414,0,0,0,1.363-1.14Z" fill="#fff"/>
        </g>
        <g id="Grupo_4509" data-name="Grupo 4509">
          <path id="Trazado_5768" data-name="Trazado 5768" d="M389.968,823.243a9.08,9.08,0,0,1,2.563-6.406.678.678,0,0,1,1.049-.084c.276.291.247.654-.1,1.021a7.689,7.689,0,0,0-.236,10.415c.1.112.2.216.3.329a.67.67,0,0,1,.009.989.678.678,0,0,1-.988-.086,8.842,8.842,0,0,1-2.495-5.091C390.011,823.92,389.991,823.505,389.968,823.243Z" fill="#fff"/>
        </g>
        <g id="Grupo_4510" data-name="Grupo 4510">
          <path id="Trazado_5769" data-name="Trazado 5769" d="M420.227,823.243a8.957,8.957,0,0,1-2.5,6.1.749.749,0,0,1-.9.277.675.675,0,0,1-.116-1.145,7.46,7.46,0,0,0,1.909-3.36,7.584,7.584,0,0,0-1.838-7.29c-.134-.148-.315-.348-.3-.512a1.011,1.011,0,0,1,.311-.664.6.6,0,0,1,.836.136,8.917,8.917,0,0,1,2.039,3.194A9.348,9.348,0,0,1,420.227,823.243Z" fill="#fff"/>
        </g>
        <g id="Grupo_4511" data-name="Grupo 4511">
          <path id="Trazado_5770" data-name="Trazado 5770" d="M393.336,823.1a5.559,5.559,0,0,1,1.588-3.926c.251-.265.576-.4.864-.155a1.252,1.252,0,0,1,.3.71c.021.118-.134.283-.237.4a4.309,4.309,0,0,0-.006,5.953c.339.39.364.78.067,1.058-.32.3-.691.241-1.077-.171A5.606,5.606,0,0,1,393.336,823.1Z" fill="#fff"/>
        </g>
        <g id="Grupo_4512" data-name="Grupo 4512">
          <path id="Trazado_5771" data-name="Trazado 5771" d="M416.866,823.144a5.593,5.593,0,0,1-1.583,3.911c-.249.263-.574.406-.863.16a1.255,1.255,0,0,1-.308-.711c-.021-.118.133-.284.236-.405a4.319,4.319,0,0,0-.015-5.988c-.319-.376-.336-.745-.047-1.02s.695-.247,1.045.13A5.589,5.589,0,0,1,416.866,823.144Z" fill="#fff"/>
        </g>
      </g>
    </g>
  </g>
</svg>
