<svg xmlns="http://www.w3.org/2000/svg" width="58.211" height="59.753" viewBox="0 0 58.211 59.753">
  <g id="Grupo_4504" data-name="Grupo 4504" transform="translate(-219.206 -796.957)">
    <g id="Grupo_4503" data-name="Grupo 4503">
      <g id="Grupo_4502" data-name="Grupo 4502">
        <path id="Trazado_5764" data-name="Trazado 5764" d="M277.415,827.619c-.855-14.609-12.976-26.23-27.981-26.785v-2.822a1.055,1.055,0,1,0-2.109,0v2.819c-15.069.489-27.26,12.135-28.117,26.788a1.054,1.054,0,0,0,1.955.606,8.412,8.412,0,0,1,14.767.819,1.055,1.055,0,0,0,1.921,0,11.419,11.419,0,0,1,9.475-6.6v26.885a5.272,5.272,0,1,1-10.544,0,1.054,1.054,0,0,0-2.109,0,7.381,7.381,0,1,0,14.762,0v-26.87a11.418,11.418,0,0,1,9.339,6.584,1.053,1.053,0,0,0,1.919,0,8.412,8.412,0,0,1,14.767-.819,1.054,1.054,0,0,0,1.955-.606Zm-39.83-13.309a55.262,55.262,0,0,0-1.667,11.028,10.554,10.554,0,0,0-14.19-.9,26.709,26.709,0,0,1,21.191-20.993,14.165,14.165,0,0,0-1.209,1.451A28.748,28.748,0,0,0,237.585,814.31Zm10.726,5.98a13.629,13.629,0,0,0-10.255,4.6,45.337,45.337,0,0,1,3.352-15.2,16.287,16.287,0,0,1,3.326-5.09,6.74,6.74,0,0,1,1.8-1.274,4.053,4.053,0,0,1,3.561,0,8.5,8.5,0,0,1,3.115,2.8A26.708,26.708,0,0,1,257,814.848a52.629,52.629,0,0,1,1.563,10.039A13.634,13.634,0,0,0,248.311,820.29Zm19.982,1.827a10.487,10.487,0,0,0-7.593,3.223,47.836,47.836,0,0,0-3.561-16.507,18.952,18.952,0,0,0-3.441-5.391,26.707,26.707,0,0,1,21.2,20.992A10.5,10.5,0,0,0,268.293,822.117Z" fill="#fff"/>
      </g>
    </g>
  </g>
</svg>
