<svg xmlns="http://www.w3.org/2000/svg" xmlns:xlink="http://www.w3.org/1999/xlink" width="84.177" height="58.642" viewBox="0 0 84.177 58.642">
  <defs>
    <linearGradient id="linear-gradient" x1="16.881" y1="0.5" x2="4.206" y2="0.5" gradientUnits="objectBoundingBox">
      <stop offset="0.151" stop-color="#2d44d2"/>
      <stop offset="0.171" stop-color="#2b47cc"/>
      <stop offset="0.46" stop-color="#147380"/>
      <stop offset="0.666" stop-color="#058e50"/>
      <stop offset="0.768" stop-color="#00993e"/>
    </linearGradient>
    <linearGradient id="linear-gradient-2" x1="107.437" y1="0.5" x2="26.321" y2="0.5" xlink:href="#linear-gradient"/>
    <linearGradient id="linear-gradient-3" x1="104.037" y1="0.5" x2="22.921" y2="0.5" xlink:href="#linear-gradient"/>
    <linearGradient id="linear-gradient-4" x1="105.737" y1="0.5" x2="24.621" y2="0.5" xlink:href="#linear-gradient"/>
  </defs>
  <g id="Grupo_15905" data-name="Grupo 15905" transform="translate(-209.534 -3210.641)">
    <path id="Trazado_37783" data-name="Trazado 37783" d="M255.9,3212.6s-49.077,10.382-46.245,26.426,2.14,34.215,38.821,28.433,46.119,1.768,45.175-18.051S292.7,3211.657,255.9,3212.6Z" fill="#e6e6e6"/>
    <g id="Grupo_15625" data-name="Grupo 15625">
      <path id="Trazado_37793" data-name="Trazado 37793" d="M279.584,3210.641H239.8a9.436,9.436,0,0,0-9.37,8.429,9.437,9.437,0,0,0-8.429,9.37v23.035a9.434,9.434,0,0,0,9.423,9.423v7.329a1.048,1.048,0,0,0,1.047,1.047c.4,0-.821.628,14.936-8.376h23.8a9.436,9.436,0,0,0,9.37-8.429,9.436,9.436,0,0,0,8.429-9.37v-23.035a9.434,9.434,0,0,0-9.423-9.423Zm-8.376,48.163H247.4a2.1,2.1,0,0,0-1.039.275l-12.85,7.343V3260.9a2.1,2.1,0,0,0-2.094-2.094,7.337,7.337,0,0,1-7.329-7.329V3228.44a7.337,7.337,0,0,1,7.329-7.329h39.786a7.337,7.337,0,0,1,7.329,7.329v23.035A7.337,7.337,0,0,1,271.208,3258.8Zm15.7-15.7a7.338,7.338,0,0,1-6.282,7.252V3228.44a9.434,9.434,0,0,0-9.423-9.423H232.545a7.34,7.34,0,0,1,7.253-6.282h39.786a7.337,7.337,0,0,1,7.329,7.329Z" fill="url(#linear-gradient)"/>
      <path id="Trazado_37794" data-name="Trazado 37794" d="M233.516,3234.722a5.236,5.236,0,1,0,5.235,5.236,5.242,5.242,0,0,0-5.235-5.236Zm0,8.377a3.142,3.142,0,1,1,3.141-3.141A3.145,3.145,0,0,1,233.516,3243.1Z" fill="url(#linear-gradient-2)"/>
      <path id="Trazado_37795" data-name="Trazado 37795" d="M269.114,3234.722a5.236,5.236,0,1,0,5.235,5.236,5.242,5.242,0,0,0-5.235-5.236Zm0,8.377a3.142,3.142,0,1,1,3.141-3.141A3.145,3.145,0,0,1,269.114,3243.1Z" fill="url(#linear-gradient-3)"/>
      <path id="Trazado_37796" data-name="Trazado 37796" d="M251.315,3234.722a5.236,5.236,0,1,0,5.235,5.236,5.242,5.242,0,0,0-5.235-5.236Zm0,8.377a3.142,3.142,0,1,1,3.141-3.141A3.145,3.145,0,0,1,251.315,3243.1Z" fill="url(#linear-gradient-4)"/>
    </g>
  </g>
</svg>
