<svg xmlns="http://www.w3.org/2000/svg" xmlns:xlink="http://www.w3.org/1999/xlink" width="77.608" height="60.152" viewBox="0 0 77.608 60.152">
  <defs>
    <linearGradient id="linear-gradient" x1="9.788" y1="0.5" x2="-6.166" y2="0.5" gradientUnits="objectBoundingBox">
      <stop offset="0.151" stop-color="#2d44d2"/>
      <stop offset="0.171" stop-color="#2b47cc"/>
      <stop offset="0.46" stop-color="#147380"/>
      <stop offset="0.666" stop-color="#058e50"/>
      <stop offset="0.768" stop-color="#00993e"/>
    </linearGradient>
    <linearGradient id="linear-gradient-2" x1="31.298" y1="0.5" x2="-21.603" y2="0.5" xlink:href="#linear-gradient"/>
  </defs>
  <g id="Grupo_15908" data-name="Grupo 15908" transform="translate(-817.009 -3205)">
    <path id="Trazado_37786" data-name="Trazado 37786" d="M863.537,3264.108s27.315-7.069,29.389-21.157,8.09-28.719-28.12-36.441-51.744,15.813-46.95,33.168C823.446,3259.916,828.636,3252.386,863.537,3264.108Z" fill="#e6e6e6"/>
    <g id="Grupo_15627" data-name="Grupo 15627">
      <g id="Grupo_15626" data-name="Grupo 15626">
        <path id="Trazado_37797" data-name="Trazado 37797" d="M865.759,3250.012c5.031-8.344,11.389-20.074,11.389-26.1a18.441,18.441,0,0,0-36.883,0c0,6.029,6.359,17.759,11.389,26.1-5.968.451-19.55,2.071-19.55,7.442,0,5.287,13.789,7.7,26.615,7.7s26.615-2.411,26.615-7.7c-.013-5.371-13.606-6.991-19.575-7.442Zm-22.948-26.1a15.9,15.9,0,1,1,31.8,0c0,7.662-12.205,26.883-15.908,32.534-3.7-5.651-15.9-24.872-15.9-32.534Zm15.9,38.7c-15.579,0-24.069-3.411-24.069-5.165,0-1.352,5.6-4.263,18.514-5.006,2.424,3.91,4.264,6.675,4.507,7a1.3,1.3,0,0,0,2.108,0c.255-.3,2.082-3.094,4.506-7,12.912.743,18.515,3.642,18.515,5.006-.012,1.766-8.5,5.165-24.081,5.165Z" fill="url(#linear-gradient)"/>
        <path id="Trazado_37798" data-name="Trazado 37798" d="M866.734,3223.909a8.027,8.027,0,1,0-8.027,8.027A8.026,8.026,0,0,0,866.734,3223.909Zm-13.521,0a5.493,5.493,0,1,1,5.494,5.493A5.495,5.495,0,0,1,853.213,3223.909Z" fill="url(#linear-gradient-2)"/>
      </g>
    </g>
  </g>
</svg>
