<svg xmlns="http://www.w3.org/2000/svg" xmlns:xlink="http://www.w3.org/1999/xlink" width="78.7" height="55.733" viewBox="0 0 78.7 55.733">
  <defs>
    <linearGradient id="linear-gradient" x1="18.251" y1="0.5" x2="1.539" y2="0.5" gradientUnits="objectBoundingBox">
      <stop offset="0.151" stop-color="#2d44d2"/>
      <stop offset="0.171" stop-color="#2b47cc"/>
      <stop offset="0.46" stop-color="#147380"/>
      <stop offset="0.666" stop-color="#058e50"/>
      <stop offset="0.768" stop-color="#00993e"/>
    </linearGradient>
    <linearGradient id="linear-gradient-2" x1="29.65" y1="0.5" x2="1.741" y2="0.5" xlink:href="#linear-gradient"/>
    <linearGradient id="linear-gradient-3" x1="51.886" y1="0.5" x2="3.047" y2="0.5" xlink:href="#linear-gradient"/>
  </defs>
  <g id="Grupo_15906" data-name="Grupo 15906" transform="translate(-415.137 -3212.18)">
    <path id="Trazado_37784" data-name="Trazado 37784" d="M439.135,3264.467s49.686,6.894,52.469-9.158,8.959-30.143-26.864-39.923C403.126,3198.564,404.193,3252.86,439.135,3264.467Z" fill="#e6e6e6"/>
    <g id="Grupo_15623" data-name="Grupo 15623">
      <path id="Trazado_37788" data-name="Trazado 37788" d="M467.733,3247.756a4.355,4.355,0,0,0-4.935-.855l-7.251,3.435a2.616,2.616,0,0,1-2.961-.513l-8.829-8.83a2.612,2.612,0,0,1-.513-2.961l3.434-7.251a4.357,4.357,0,0,0-.854-4.935l-7.489-7.488a4.344,4.344,0,0,0-6.148,0l-2,2a15.449,15.449,0,0,0,0,21.824l21.21,21.21a15.424,15.424,0,0,0,21.825,0l2-2a4.352,4.352,0,0,0,0-6.148Zm-30.628-28.169,7.489,7.489a2.614,2.614,0,0,1,.513,2.961l-.794,1.676L432.8,3220.2l.615-.615A2.607,2.607,0,0,1,437.105,3219.587Zm15.524,42.574-21.21-21.21a13.7,13.7,0,0,1,.153-19.519l11.951,11.95-1.851,3.906a4.357,4.357,0,0,0,.855,4.935l8.83,8.829a4.356,4.356,0,0,0,4.934.855l3.907-1.85,11.95,11.95a13.68,13.68,0,0,1-19.519.154Zm21.363-2-.615.615-11.511-11.511,1.677-.794a2.613,2.613,0,0,1,2.96.513l7.489,7.489a2.61,2.61,0,0,1,0,3.688Z" fill="url(#linear-gradient)"/>
      <path id="Trazado_37789" data-name="Trazado 37789" d="M453.491,3212.267a2.608,2.608,0,1,0,0,5.216,22.631,22.631,0,0,1,22.605,22.6.712.712,0,0,0,.008.107,2.609,2.609,0,0,0,5.209-.218,27.823,27.823,0,0,0-27.822-27.71Zm25.214,28.582a.869.869,0,0,1-.87-.9,24.332,24.332,0,0,0-24.344-24.21.869.869,0,1,1,0-1.738,25.969,25.969,0,0,1,26.082,26.017A.87.87,0,0,1,478.7,3240.849Z" fill="url(#linear-gradient-2)"/>
      <path id="Trazado_37790" data-name="Trazado 37790" d="M463.055,3240.088a.9.9,0,0,0,.007.107,2.61,2.61,0,0,0,5.21-.193,14.78,14.78,0,0,0-14.781-14.694,2.608,2.608,0,1,0,0,5.217A9.574,9.574,0,0,1,463.055,3240.088Zm-10.433-12.172a.866.866,0,0,1,.869-.869A13.073,13.073,0,0,1,466.533,3240a.87.87,0,0,1-1.738.032c0-.045,0-.055,0-.1a11.316,11.316,0,0,0-11.3-11.152A.87.87,0,0,1,452.622,3227.916Z" fill="url(#linear-gradient-3)"/>
    </g>
  </g>
</svg>
