<svg xmlns="http://www.w3.org/2000/svg" xmlns:xlink="http://www.w3.org/1999/xlink" width="78.701" height="55.806" viewBox="0 0 78.701 55.806">
  <defs>
    <linearGradient id="linear-gradient" x1="14.362" y1="0.5" x2="-2.624" y2="0.5" gradientUnits="objectBoundingBox">
      <stop offset="0.151" stop-color="#2d44d2"/>
      <stop offset="0.171" stop-color="#2b47cc"/>
      <stop offset="0.46" stop-color="#147380"/>
      <stop offset="0.666" stop-color="#058e50"/>
      <stop offset="0.768" stop-color="#00993e"/>
    </linearGradient>
    <linearGradient id="linear-gradient-2" x1="27.215" y1="0.5" x2="-6.348" y2="0.5" xlink:href="#linear-gradient"/>
  </defs>
  <g id="Grupo_15907" data-name="Grupo 15907" transform="translate(-625.174 -3213.175)">
    <path id="Trazado_37785" data-name="Trazado 37785" d="M679.877,3216.694s-49.687-6.894-52.47,9.159-8.959,30.142,26.864,39.922C715.885,3282.6,714.819,3228.3,679.877,3216.694Z" fill="#e6e6e6"/>
    <g id="Grupo_15624" data-name="Grupo 15624">
      <path id="Trazado_37791" data-name="Trazado 37791" d="M676.438,3248.085a4.288,4.288,0,0,0-4.855-.841l-7.132,3.379a2.571,2.571,0,0,1-2.913-.505l-8.686-8.685a2.573,2.573,0,0,1-.5-2.913l3.378-7.133a4.285,4.285,0,0,0-.84-4.854l-7.367-7.367a4.281,4.281,0,0,0-6.047,0l-1.966,1.966a15.173,15.173,0,0,0,0,21.469l20.864,20.864a15.174,15.174,0,0,0,21.469,0l1.966-1.966a4.281,4.281,0,0,0,0-6.047Zm-30.129-27.709,7.367,7.366a2.572,2.572,0,0,1,.505,2.913l-.782,1.649-11.323-11.323.605-.6A2.567,2.567,0,0,1,646.309,3220.376Zm15.271,41.879-20.865-20.864a13.458,13.458,0,0,1,.152-19.2l11.755,11.756-1.82,3.842a4.283,4.283,0,0,0,.841,4.854l8.685,8.686a4.288,4.288,0,0,0,4.855.841l3.842-1.82L680.78,3262.1a13.459,13.459,0,0,1-19.2.151Zm21.015-1.965-.6.6-11.323-11.323,1.649-.781a2.57,2.57,0,0,1,2.912.5l7.367,7.366a2.57,2.57,0,0,1,0,3.629Z" fill="url(#linear-gradient)"/>
      <path id="Trazado_37792" data-name="Trazado 37792" d="M688.941,3213.175H675.257a1.712,1.712,0,0,0-1.71,1.71v3.421a1.713,1.713,0,0,0,1.71,1.711h2.212l-12.475,12.474a1.709,1.709,0,0,0,0,2.419l3.067,3.067a1.709,1.709,0,0,0,2.419,0l12.475-12.475v2.208a1.709,1.709,0,0,0,1.719,1.71l3.421-.017a1.715,1.715,0,0,0,1.7-1.71V3214.03A.855.855,0,0,0,688.941,3213.175Zm-.855,14.518-3.421.017v-4.272a.856.856,0,0,0-1.46-.6l-13.935,13.934L666.2,3233.7l13.934-13.935a.856.856,0,0,0-.6-1.46h-4.276v-3.421h12.829Z" fill="url(#linear-gradient-2)"/>
    </g>
  </g>
</svg>
