<svg xmlns="http://www.w3.org/2000/svg" xmlns:xlink="http://www.w3.org/1999/xlink" width="84.238" height="53.147" viewBox="0 0 84.238 53.147">
  <defs>
    <linearGradient id="linear-gradient" x1="6.505" y1="0.5" x2="-9.514" y2="0.5" gradientUnits="objectBoundingBox">
      <stop offset="0.151" stop-color="#2d44d2"/>
      <stop offset="0.171" stop-color="#2b47cc"/>
      <stop offset="0.46" stop-color="#147380"/>
      <stop offset="0.666" stop-color="#058e50"/>
      <stop offset="0.768" stop-color="#00993e"/>
    </linearGradient>
    <linearGradient id="linear-gradient-2" x1="12.987" y1="0.5" x2="-20.356" y2="0.5" xlink:href="#linear-gradient"/>
  </defs>
  <g id="Grupo_15909" data-name="Grupo 15909" transform="translate(-989.972 -3212.573)">
    <path id="Trazado_37787" data-name="Trazado 37787" d="M1013.9,3264.467s42.586,3.793,52.47-9.158c36.1-47.307-63.763-45.507-69.6-26.544S978.953,3252.86,1013.9,3264.467Z" fill="#e6e6e6"/>
    <g id="Grupo_15628" data-name="Grupo 15628">
      <path id="Trazado_37799" data-name="Trazado 37799" d="M1008.271,3265.72l3.81-14.217a26.305,26.305,0,1,1,10.479,10.389Zm14.144-7.653,1,.6a23.675,23.675,0,1,0-8.1-8.026l.612,1.005-2.357,8.8Z" fill="url(#linear-gradient)"/>
      <path id="Trazado_37800" data-name="Trazado 37800" d="M1044.8,3242.473c-1.08-.646-2.486-1.368-3.759-.847-.976.4-1.6,1.928-2.232,2.709a.936.936,0,0,1-1.211.262,17.021,17.021,0,0,1-8.5-7.279,1.043,1.043,0,0,1,.131-1.423,5.734,5.734,0,0,0,1.544-2.506,5.482,5.482,0,0,0-.69-2.966c-.512-1.1-1.085-2.676-2.19-3.3a3,3,0,0,0-3.259.484,6.615,6.615,0,0,0-2.293,5.241,7.43,7.43,0,0,0,.206,1.663,13.8,13.8,0,0,0,1.6,3.677,29.089,29.089,0,0,0,1.665,2.533,25.709,25.709,0,0,0,7.224,6.707,21.847,21.847,0,0,0,4.506,2.143c1.764.583,3.337,1.19,5.244.828a6.349,6.349,0,0,0,4.755-3.537,3.071,3.071,0,0,0,.22-1.805C1047.491,3243.814,1045.808,3243.074,1044.8,3242.473Z" fill-rule="evenodd" fill="url(#linear-gradient-2)"/>
    </g>
  </g>
</svg>
